OpenSim_Sub01_EMGBaseline_GRF.mot
version=1
nRows=29
nColumns=19
inDegrees=no
endheader
time	lFx	lFy	lFz	lCOPx	lCOPy	lCOPz	rFx	rFy	rFz	rCOPx	rCOPy	rCOPz	lMx	lMy	lMz	rMx	rMy	rMz
57.03000000	-5.82203334	0.43260412	-8.28483397	0.00000023	0	-0.00000020	-20.62309331	595.03546609	-35.14101182	1.06355464	0	-0.43710639	0	-0.00000154	0	0	0.54376773	0.00000000
57.04000000	-5.84373830	0.39768672	-8.24017957	-0.00000014	0	0.00000007	-18.85758913	596.35513628	-35.86529347	1.05863701	0	-0.43733135	0	0.00000043	0	0	0.69807894	0
57.05000000	-5.89513557	0.40545431	-8.16710734	-0.00000010	0	0.00000007	-16.92255716	598.29532582	-36.21467715	1.05363227	0	-0.43765118	0	0.00000014	0	0	0.85629062	0
57.06000000	-5.97364565	0.41281444	-8.15529047	0.00000041	0	-0.00000020	-14.74864175	601.06533208	-36.19672639	1.04830753	0	-0.43805626	0	-0.00000272	0	0	1.10161620	0.00000000
57.07000000	-6.04756918	0.37168301	-8.19519752	0.00000150	0	-0.00000078	-12.33503922	604.85255538	-35.90742702	1.04264760	0	-0.43847536	0	-0.00000823	0	0	1.41590022	0
57.08000000	-6.05676974	0.26914118	-8.26213778	0.00000286	0	-0.00000148	-9.85711680	609.55562124	-35.43310554	1.03683360	0	-0.43885164	0	-0.00001397	0	0	1.67816480	-0.00000000
57.09000000	-6.01643521	0.13456833	-8.30203897	0.00000297	0	-0.00000149	-7.38927154	614.65896955	-34.87869376	1.03105338	0	-0.43921265	0	-0.00001095	0	0	1.88976967	-0.00000000
57.10000000	-5.96493080	0.05097621	-8.33513177	-0.00000179	0	0.00000107	-5.00245022	619.66714622	-34.41870122	1.02530076	0	-0.43958625	0	0.00001968	0	0	2.09550155	0.00000000
57.11000000	-5.93407890	0.14143225	-8.36895401	-0.00001675	0	0.00000894	-2.66677579	624.39025392	-34.11519339	1.01955780	0	-0.43996302	0	0.00010177	0	0	2.26686887	0
57.12000000	-5.92649094	0.31266310	-8.37758480	-0.00004444	0	0.00002328	-0.36069588	628.87530709	-33.99105440	1.01380680	0	-0.44031474	0	0.00023662	0	0	2.42008975	0
57.13000000	-5.93144586	0.38994939	-8.37587448	-0.00007242	0	0.00003732	2.04266111	633.13093819	-34.08983270	1.00805933	0	-0.44062128	0	0.00033786	0	0	2.58566782	0.00000000
57.14000000	-5.92444856	0.39590717	-8.38333862	-0.00005302	0	0.00002586	4.65645779	637.06200619	-34.35959779	1.00230186	0	-0.44089760	0	0.00013622	0	0	2.71453238	0.00000000
57.15000000	-5.91642273	0.42506433	-8.40193817	0.00011243	0	-0.00006239	7.63325625	640.52750286	-34.61110426	0.99639526	0	-0.44118525	0	-0.00086444	0	0	2.80644576	0
57.16000000	-5.92650868	0.52553389	-8.42488608	0.00054494	0	-0.00028892	10.91112712	643.59779644	-34.71873603	0.99035118	0	-0.44148747	0	-0.00316073	0	0	2.92913543	0.00000000
57.17000000	-5.92776682	0.63239799	-8.41534248	0.00124059	0	-0.00064718	14.48793026	646.35253650	-34.46733761	0.98418804	0	-0.44179935	0	-0.00639039	0	0	3.11219130	0
57.18000000	-5.90975185	0.65355738	-8.38919312	0.00172844	0	-0.00088410	18.38772640	648.98927128	-33.85057910	0.97785128	0	-0.44208261	0	-0.00756222	0	0	3.33075409	0.00000000
57.19000000	-5.88810863	0.49884579	-8.42357815	0.00058290	0	-0.00025030	22.66922756	651.61753456	-33.20616169	0.97120024	0	-0.44232810	0	0.00109983	0	0	3.58113702	0
57.20000000	-5.93145642	0.05819605	-8.47511732	-0.00477102	0	0.00258676	27.20658578	654.21624950	-32.96719701	0.96435842	0	-0.44253776	0	0.03203924	0	0	3.80909518	0.00000000
57.21000000	-6.18213106	-0.61689406	-8.50646450	-0.01680419	0	0.00886165	31.68896202	656.77044720	-33.34457199	0.95737344	0	-0.44268113	0	0.09383324	0	0	3.93968298	-0.00000000
57.22000000	-6.84017682	-1.16499608	-8.48791188	-0.03331057	0	0.01729789	35.95055623	659.17201331	-34.36938132	0.95027389	0	-0.44275508	0	0.16553401	0	0	3.98830533	0
57.23000000	-7.94127728	-0.61979963	-8.36090411	-0.03817298	0	0.01930955	39.99970823	661.12613083	-35.95049991	0.94309885	0	-0.44279466	0	0.15054133	0	0	3.97115907	0
57.24000000	-8.86045043	2.92639848	-7.92758778	0.00954380	0	-0.00652628	43.95267173	662.22857685	-37.74703491	0.93599515	0	-0.44283310	0	-0.16720004	0	0	3.84573072	-0.00000000
57.25000000	-7.71147434	12.40033457	-6.88857730	0.17394061	0	-0.09318252	47.77220461	661.90089090	-39.39292194	0.92902348	0	-0.44290868	0	-1.08227682	0	0	3.61822821	0
57.26000000	-2.15303282	30.91034762	-5.40683306	0.49587148	0	-0.26028569	51.43653930	659.34229441	-40.51654538	0.92225873	0	-0.44309863	0	-2.67653360	0	0	3.36450128	0
57.27000000	6.99650760	58.77883349	-4.31108944	0.87016262	0	-0.45049797	54.97520227	653.89025265	-40.74720542	0.91570536	0	-0.44344707	0	-4.17670939	0	0	3.12640329	-0.00000000
57.28000000	13.01540527	89.52789486	-4.01336266	1.10923712	0	-0.57015630	58.49366173	645.09659254	-39.95254134	0.90929808	0	-0.44399656	0	-4.54106713	0	0	2.94345293	-0.00000000
57.29000000	12.01694678	116.09758689	-4.75626853	1.20130722	0	-0.61526692	61.83622707	632.94440118	-37.98931790	0.90309681	0	-0.44471209	0	-3.78885272	0	0	2.84748410	0.00000000
57.30000000	7.13233514	138.73696630	-6.53798427	1.21572525	0	-0.61991000	64.73191595	617.39825584	-34.75114785	0.89702287	0	-0.44552201	0	-2.30798435	0	0	2.83468001	0.00000000
57.31000000	1.31489546	161.12448867	-8.01185396	1.20644602	0	-0.61210389	67.20864838	598.20943961	-30.23739288	0.89099097	0	-0.44637096	0	-0.66335110	0	0	2.85337092	0
